# xmcd
#
# Track frame offsets:
#	150
#	18126
#	35007
#	50624
#	63222
#	76167
#	89627
#	103269
#	117830
#
# Disc length: 1750 seconds
#
# Revision: 1
# Processed by: cddbd v1.5.2PL0 Copyright (c) Steve Scherf et al.
# Submitted via: audiograbber 1.83.01
#
DISCID=6e06d409
DTITLE=Various Artist - CDX 075
DYEAR=1994
DGENRE=Country
TTITLE0=Trisha Yearwood - Better Your Heart Than Mine
TTITLE1=Radney Foster - Closing Time
TTITLE2=Linda Davis - Company Time
TTITLE3=Bob Woodruff - Hard Liquor, Cold Women, Warm Beer
TTITLE4=Rick Trevino - Honky Tonk Crowd
TTITLE5=Aaron Tippin - Honky-Tonk Superman
TTITLE6=Dwight Yoakam - Try Not To Look So Pretty
TTITLE7=Tracy Lawrence - We Don't Love Here Anymore
TTITLE8=Hank Flamingo - White Lightning
EXTD=
EXTT0=
EXTT1=
EXTT2=
EXTT3=
EXTT4=
EXTT5=
EXTT6=
EXTT7=
EXTT8=
PLAYORDER=
